# Blender v2.83 (sub 15) OBJ File: ''
# www.blender.org
mtllib rotor1.mtl
o Rotary_Glass_Mesh.003
v -22.081768 72.318504 13.843771
v -22.540482 73.101013 13.843773
v -51.920937 55.947147 13.843768
v -51.462227 55.164639 13.843767
v -22.540482 73.101013 6.577643
v -51.920937 55.947151 6.577638
v -22.081768 72.318504 6.577643
v -51.462227 55.164646 6.577638
v -17.632118 73.133499 13.843773
v -18.080435 72.344986 13.843773
v 11.392422 55.519878 13.843775
v 11.840736 56.308392 13.843775
v -18.080433 72.344986 6.577643
v 11.392424 55.519882 6.577644
v -17.632118 73.133499 6.577643
v 11.840738 56.308395 6.577644
v -20.562748 76.579514 13.843774
v -19.655718 76.585518 13.843775
v -19.821163 110.522308 13.843777
v -20.728189 110.516312 13.843777
v -19.655718 76.585518 6.577642
v -19.821163 110.522308 6.577647
v -20.562746 76.579514 6.577642
v -20.728189 110.516312 6.577647
v -22.552305 74.887512 13.843774
v -22.703897 73.993225 13.843774
v -21.966789 73.998100 13.843774
v -21.857981 74.639992 13.843774
v -21.849495 73.357704 13.843774
v -21.520247 72.796051 13.843773
v -21.383085 71.740082 13.843771
v -21.018755 72.380875 13.843771
v -20.528704 71.435501 13.843771
v -20.405510 72.162254 13.843771
v -19.621675 71.441498 13.843773
v -19.754477 72.166565 13.843773
v -18.771400 71.757362 13.843773
v -19.144180 72.393280 13.843774
v -18.648230 72.815056 13.843773
v -18.326445 73.381020 13.843774
v -17.480526 74.027794 13.843774
v -18.217636 74.022911 13.843774
v -17.643942 74.919998 13.843774
v -18.334930 74.663307 13.843774
v -18.102655 75.702507 13.843775
v -18.664177 75.224968 13.843774
v -18.801338 76.280937 13.843775
v -19.165667 75.640144 13.843775
v -19.778912 75.858757 13.843775
v -20.429945 75.854446 13.843774
v -21.413023 76.263649 13.843774
v -21.040243 75.627731 13.843772
v -22.103989 75.676025 13.843774
v -21.536194 75.205956 13.843774
v -22.703896 73.993225 6.577643
v -22.552305 74.887512 6.577642
v -21.857981 74.639992 6.577642
v -21.966787 73.998100 6.577643
v -21.849493 73.357704 6.577643
v -21.520245 72.796051 6.577643
v -21.383085 71.740074 6.577643
v -21.018755 72.380875 6.577643
v -20.528704 71.435493 6.577642
v -20.405510 72.162254 6.577643
v -19.621675 71.441498 6.577642
v -19.754477 72.166565 6.577643
v -18.771400 71.757362 6.577643
v -19.144178 72.393280 6.577643
v -18.648228 72.815056 6.577643
v -18.326443 73.381020 6.577643
v -17.480526 74.027794 6.577643
v -18.217636 74.022911 6.577643
v -17.643942 74.919998 6.577643
v -18.334929 74.663307 6.577642
v -18.102654 75.702507 6.577643
v -18.664177 75.224960 6.577643
v -18.801336 76.280937 6.577643
v -19.165667 75.640137 6.577643
v -19.778912 75.858757 6.577642
v -20.429945 75.854446 6.577642
v -21.413021 76.263649 6.577642
v -21.040243 75.627731 6.577642
v -22.103989 75.676025 6.577642
v -21.536194 75.205956 6.577642
v -1.373308 64.064087 6.536970
v 11.752739 56.488342 6.534584
v 11.698223 56.392952 13.739719
v -1.536623 64.034058 13.739718
v 11.798664 56.569271 13.757151
v 11.851891 56.663601 12.541614
v -1.274351 64.235489 12.541613
v -1.437000 64.206604 13.757150
v 12.008226 56.944687 11.363009
v -0.791332 64.321281 11.363008
v 12.257956 57.406624 10.257151
v -0.002628 64.461372 10.257150
v 12.585749 58.039055 9.257638
v 1.067799 64.651497 9.257637
v 12.972021 58.826630 8.394841
v 2.387423 64.885887 8.394840
v 13.394629 59.748550 7.694973
v 3.916149 65.157410 7.694973
v 13.830851 60.778496 7.179304
v 5.607529 65.457832 7.179304
v 14.259413 61.885139 6.863498
v 7.410172 65.778008 6.863499
v 14.662203 63.033218 6.757153
v 9.269300 66.108223 6.757154
v 9.260553 66.093185 6.557911
v 14.656469 63.016129 6.557939
v -38.065517 62.772675 6.536963
v -51.189323 55.193062 6.534574
v -51.244678 55.287952 13.739709
v -38.009872 62.929115 13.739713
v -51.142204 55.112812 13.757140
v -51.087124 55.019550 12.541604
v -37.966557 62.601261 12.541607
v -37.910248 62.756569 13.757143
v -50.921867 54.743622 11.362999
v -38.133766 62.140068 11.363003
v -50.646683 54.296387 10.257140
v -38.406799 61.386986 10.257142
v -50.262871 53.696289 9.257627
v -38.777359 60.364906 9.257629
v -49.773949 52.967979 8.394830
v -39.234184 59.104885 8.394833
v -49.186844 52.141037 7.694963
v -39.763397 57.645203 7.694966
v -48.513000 51.248280 7.179294
v -40.348915 56.030216 7.179295
v -47.768898 50.323814 6.863487
v -40.972954 54.308998 6.863489
v -46.976028 49.400948 6.757141
v -41.616547 52.533836 6.757143
v -41.625191 52.548927 6.557900
v -46.987961 49.414459 6.557927
v -20.837807 95.194763 6.536971
v -20.840042 110.350113 6.534587
v -20.730181 110.350601 13.739723
v -20.730148 95.068344 13.739720
v -20.933098 110.349426 13.757154
v -21.041403 110.348358 12.541616
v -21.035730 95.194756 12.541615
v -20.929386 95.068344 13.757152
v -21.362997 110.343208 11.363013
v -21.351536 95.570168 11.363009
v -21.887905 110.328506 10.257154
v -21.867207 96.183159 10.257151
v -22.599506 110.296173 9.257641
v -22.567074 97.015114 9.257639
v -23.474703 110.236900 8.394843
v -23.429874 98.040749 8.394842
v -24.484411 110.141930 7.694975
v -24.429386 99.228905 7.694975
v -25.594484 110.004738 7.179305
v -25.535246 100.543472 7.179303
v -26.767143 109.822563 6.863500
v -26.713850 101.944519 6.863499
v -27.962805 109.597351 6.757153
v -27.929388 103.389465 6.757153
v -27.911993 103.389404 6.557911
v -27.945135 109.600929 6.557939
vt 0.916667 0.500000
vt 0.861111 0.500000
vt 0.861111 0.500000
vt 0.916667 0.500000
vt 0.861111 0.250000
vt 0.861111 0.250000
vt 0.916667 0.250000
vt 0.916667 0.250000
vt 0.250000 0.500000
vt 0.194444 0.500000
vt 0.194444 0.500000
vt 0.250000 0.500000
vt 0.194444 0.250000
vt 0.194444 0.250000
vt 0.250000 0.250000
vt 0.250000 0.250000
vt 0.583333 0.500000
vt 0.527778 0.500000
vt 0.527778 0.500000
vt 0.583333 0.500000
vt 0.527778 0.250000
vt 0.527778 0.250000
vt 0.583333 0.250000
vt 0.583333 0.250000
vt 0.750000 0.500000
vt 0.805556 0.500000
vt 0.805556 0.500000
vt 0.750000 0.500000
vt 0.861111 0.500000
vt 0.916667 0.500000
vt 0.972222 0.500000
vt 0.972222 0.500000
vt -0.027778 0.500000
vt 0.027778 0.500000
vt 0.027778 0.500000
vt -0.027778 0.500000
vt 0.083333 0.500000
vt 0.083333 0.500000
vt 0.138889 0.500000
vt 0.138889 0.500000
vt 0.194444 0.500000
vt 0.250000 0.500000
vt 0.305556 0.500000
vt 0.305556 0.500000
vt 0.361111 0.500000
vt 0.361111 0.500000
vt 0.416667 0.500000
vt 0.416667 0.500000
vt 0.472222 0.500000
vt 0.472222 0.500000
vt 0.527778 0.500000
vt 0.583333 0.500000
vt 0.638889 0.500000
vt 0.638889 0.500000
vt 0.694444 0.500000
vt 0.694444 0.500000
vt 0.805556 0.250000
vt 0.750000 0.250000
vt 0.750000 0.250000
vt 0.805556 0.250000
vt 0.861111 0.250000
vt 0.916667 0.250000
vt 0.972222 0.250000
vt 0.972222 0.250000
vt 0.027778 0.250000
vt -0.027778 0.250000
vt -0.027778 0.250000
vt 0.027778 0.250000
vt 0.083333 0.250000
vt 0.083333 0.250000
vt 0.138889 0.250000
vt 0.138889 0.250000
vt 0.194444 0.250000
vt 0.250000 0.250000
vt 0.305556 0.250000
vt 0.305556 0.250000
vt 0.361111 0.250000
vt 0.361111 0.250000
vt 0.416667 0.250000
vt 0.416667 0.250000
vt 0.472222 0.250000
vt 0.472222 0.250000
vt 0.527778 0.250000
vt 0.583333 0.250000
vt 0.638889 0.250000
vt 0.638889 0.250000
vt 0.694444 0.250000
vt 0.694444 0.250000
vt 0.777778 0.000000
vt 0.777778 1.000000
vt 0.750000 1.000000
vt 0.750000 0.000000
vt 0.750000 1.000000
vt 0.777778 1.000000
vt 0.777778 0.000000
vt 0.750000 0.000000
vt 0.805556 1.000000
vt 0.805556 0.000000
vt 0.833333 1.000000
vt 0.833333 0.000000
vt 0.861111 1.000000
vt 0.861111 0.000000
vt 0.888889 1.000000
vt 0.888889 0.000000
vt 0.916667 1.000000
vt 0.916667 0.000000
vt 0.944444 1.000000
vt 0.944444 0.000000
vt 0.972222 1.000000
vt 0.972222 0.000000
vt 1.000000 1.000000
vt 1.000000 0.000000
vt 1.000000 0.000000
vt 1.000000 1.000000
vt 0.777778 0.000000
vt 0.777778 1.000000
vt 0.750000 1.000000
vt 0.750000 0.000000
vt 0.750000 1.000000
vt 0.777778 1.000000
vt 0.777778 0.000000
vt 0.750000 0.000000
vt 0.805556 1.000000
vt 0.805556 0.000000
vt 0.833333 1.000000
vt 0.833333 0.000000
vt 0.861111 1.000000
vt 0.861111 0.000000
vt 0.888889 1.000000
vt 0.888889 0.000000
vt 0.916667 1.000000
vt 0.916667 0.000000
vt 0.944444 1.000000
vt 0.944444 0.000000
vt 0.972222 1.000000
vt 0.972222 0.000000
vt 1.000000 1.000000
vt 1.000000 0.000000
vt 1.000000 0.000000
vt 1.000000 1.000000
vt 0.777778 0.000000
vt 0.777778 1.000000
vt 0.750000 1.000000
vt 0.750000 0.000000
vt 0.750000 1.000000
vt 0.777778 1.000000
vt 0.777778 0.000000
vt 0.750000 0.000000
vt 0.805556 1.000000
vt 0.805556 0.000000
vt 0.833333 1.000000
vt 0.833333 0.000000
vt 0.861111 1.000000
vt 0.861111 0.000000
vt 0.888889 1.000000
vt 0.888889 0.000000
vt 0.916667 1.000000
vt 0.916667 0.000000
vt 0.944444 1.000000
vt 0.944444 0.000000
vt 0.972222 1.000000
vt 0.972222 0.000000
vt 1.000000 1.000000
vt 1.000000 0.000000
vt 1.000000 0.000000
vt 1.000000 1.000000
vn 0.0000 -0.0000 1.0000
vn -0.5042 0.8636 0.0000
vn -0.0000 0.0000 -1.0000
vn 0.5042 -0.8636 -0.0000
vn -0.4958 -0.8685 -0.0000
vn 0.4958 0.8685 0.0000
vn 1.0000 0.0049 0.0000
vn -1.0000 -0.0049 -0.0000
vn -1.0000 -0.0066 -0.0000
vn -0.9419 0.3358 -0.0000
vn -0.9836 -0.1802 -0.0000
vn -0.8627 -0.5057 -0.0000
vn -0.4943 -0.8693 0.0000
vn -0.6377 -0.7703 0.0000
vn -0.1671 -0.9859 0.0000
vn 0.1802 -0.9836 0.0000
vn 0.5057 -0.8627 0.0000
vn 0.6478 -0.7618 0.0000
vn 0.8693 -0.4943 -0.0000
vn 1.0000 0.0066 0.0000
vn 0.9859 -0.1671 0.0000
vn 0.9374 0.3482 0.0000
vn 0.7618 0.6478 0.0000
vn 0.4943 0.8693 0.0000
vn 0.3358 0.9419 -0.0000
vn -0.0066 1.0000 0.0000
vn -0.5057 0.8627 -0.0000
vn -0.3482 0.9374 -0.0000
vn -0.7703 0.6377 -0.0000
vn -0.4535 -0.7856 -0.4209
vn -0.3623 -0.6274 -0.6892
vn -0.4999 -0.8660 -0.0151
vn 0.4978 0.8628 0.0879
vn 0.4919 0.8529 0.1750
vn 0.4929 0.8546 0.1633
vn 0.4688 0.8135 0.3441
vn 0.4725 0.8199 0.3232
vn 0.4313 0.7497 0.5020
vn 0.4387 0.7623 0.4758
vn 0.3811 0.6637 0.6436
vn 0.3923 0.6829 0.6162
vn 0.3199 0.5587 0.7652
vn 0.3344 0.5837 0.7399
vn 0.2499 0.4377 0.8637
vn 0.2669 0.4672 0.8429
vn 0.1729 0.3037 0.9370
vn 0.1915 0.3361 0.9221
vn 0.0909 0.1598 0.9830
vn 0.1101 0.1935 0.9749
vn 0.0436 0.0766 0.9961
vn 0.8813 -0.4726 -0.0053
vn 0.8901 -0.4524 -0.0547
vn 0.8936 -0.4418 -0.0794
vn -0.0432 -0.0748 0.9963
vn -0.2428 0.9692 -0.0402
vn -0.2129 0.9755 -0.0563
vn -0.1899 0.9794 -0.0684
vn 0.1619 0.9833 -0.0832
vn 0.1550 0.9844 -0.0830
vn 0.4934 0.8653 -0.0877
vn 0.0015 0.0028 -1.0000
vn -0.2633 0.9643 -0.0291
vn 0.8988 -0.4177 -0.1327
vn -0.4536 0.7856 -0.4209
vn -0.3622 0.6275 -0.6892
vn -0.5000 0.8659 -0.0151
vn 0.4983 -0.8625 0.0879
vn 0.4927 -0.8524 0.1750
vn 0.4937 -0.8542 0.1633
vn 0.4701 -0.8127 0.3441
vn 0.4738 -0.8192 0.3232
vn 0.4336 -0.7484 0.5020
vn 0.4408 -0.7611 0.4758
vn 0.3843 -0.6619 0.6436
vn 0.3953 -0.6812 0.6162
vn 0.3239 -0.5564 0.7652
vn 0.3383 -0.5815 0.7399
vn 0.2541 -0.4352 0.8637
vn 0.2711 -0.4647 0.8429
vn 0.1765 -0.3016 0.9370
vn 0.1953 -0.3339 0.9221
vn 0.0929 -0.1586 0.9830
vn 0.1125 -0.1921 0.9749
vn 0.0445 -0.0761 0.9961
vn -0.8499 -0.5269 -0.0053
vn -0.8369 -0.5447 -0.0547
vn -0.8294 -0.5530 -0.0794
vn -0.0432 0.0748 0.9963
vn 0.9608 -0.2743 -0.0402
vn 0.9512 -0.3034 -0.0563
vn 0.9431 -0.3252 -0.0685
vn 0.7706 -0.6319 -0.0832
vn 0.7750 -0.6264 -0.0830
vn 0.5027 -0.8600 -0.0877
vn 0.0017 -0.0027 -1.0000
vn 0.9667 -0.2541 -0.0291
vn -0.8112 -0.5695 -0.1328
vn 0.9419 -0.3358 0.0000
vn 0.1671 0.9859 0.0000
vn -0.1802 0.9836 0.0000
vn -0.9374 -0.3482 0.0000
vn -0.7618 -0.6478 0.0000
vn 0.7703 -0.6377 0.0000
vn 0.9071 0.0000 -0.4209
vn 0.7245 -0.0000 -0.6892
vn 0.9999 0.0001 -0.0151
vn -0.9961 -0.0003 0.0879
vn -0.9846 -0.0004 0.1750
vn -0.9866 -0.0004 0.1633
vn -0.9389 -0.0008 0.3441
vn -0.9463 -0.0007 0.3232
vn -0.8649 -0.0013 0.5020
vn -0.8796 -0.0012 0.4758
vn -0.7653 -0.0019 0.6436
vn -0.7876 -0.0017 0.6162
vn -0.6438 -0.0023 0.7652
vn -0.6727 -0.0022 0.7399
vn -0.5040 -0.0024 0.8637
vn -0.5380 -0.0025 0.8429
vn -0.3494 -0.0021 0.9370
vn -0.3868 -0.0022 0.9221
vn -0.1838 -0.0012 0.9830
vn -0.2226 -0.0014 0.9749
vn -0.0881 -0.0005 0.9961
vn -0.0314 0.9995 -0.0053
vn -0.0533 0.9971 -0.0547
vn -0.0642 0.9948 -0.0794
vn 0.0864 0.0000 0.9963
vn -0.7180 -0.6949 -0.0402
vn -0.7383 -0.6721 -0.0563
vn -0.7532 -0.6542 -0.0685
vn -0.9325 -0.3514 -0.0832
vn -0.9300 -0.3580 -0.0830
vn -0.9961 -0.0053 -0.0877
vn -0.0032 -0.0001 -1.0000
vn -0.7034 -0.7102 -0.0291
vn -0.0876 0.9873 -0.1327
usemtl glass1
s off
f 1/1/1 2/2/1 3/3/1 4/4/1
f 2/2/2 5/5/2 6/6/2 3/3/2
f 5/5/3 7/7/3 8/8/3 6/6/3
f 7/7/4 1/1/4 4/4/4 8/8/4
f 9/9/1 10/10/1 11/11/1 12/12/1
f 10/10/5 13/13/5 14/14/5 11/11/5
f 13/13/3 15/15/3 16/16/3 14/14/3
f 15/15/6 9/9/6 12/12/6 16/16/6
f 17/17/1 18/18/1 19/19/1 20/20/1
f 18/18/7 21/21/7 22/22/7 19/19/7
f 21/21/3 23/23/3 24/24/3 22/22/3
f 23/23/8 17/17/8 20/20/8 24/24/8
f 25/25/1 26/26/1 27/27/1 28/28/1
f 26/26/1 2/2/1 29/29/1 27/27/1
f 2/2/1 1/1/1 30/30/1 29/29/1
f 1/1/1 31/31/1 32/32/1 30/30/1
f 31/33/1 33/34/1 34/35/1 32/36/1
f 33/34/1 35/37/1 36/38/1 34/35/1
f 35/37/1 37/39/1 38/40/1 36/38/1
f 37/39/1 10/10/1 39/41/1 38/40/1
f 10/10/1 9/9/1 40/42/1 39/41/1
f 9/9/1 41/43/1 42/44/1 40/42/1
f 41/43/1 43/45/1 44/46/1 42/44/1
f 43/45/1 45/47/1 46/48/1 44/46/1
f 45/47/1 47/49/1 48/50/1 46/48/1
f 47/49/1 18/18/1 49/51/1 48/50/1
f 18/18/1 17/17/1 50/52/1 49/51/1
f 17/17/1 51/53/1 52/54/1 50/52/1
f 51/53/1 53/55/1 54/56/1 52/54/1
f 53/55/1 25/25/1 28/28/1 54/56/1
f 55/57/3 56/58/3 57/59/3 58/60/3
f 5/5/3 55/57/3 58/60/3 59/61/3
f 7/7/3 5/5/3 59/61/3 60/62/3
f 61/63/3 7/7/3 60/62/3 62/64/3
f 63/65/3 61/66/3 62/67/3 64/68/3
f 65/69/3 63/65/3 64/68/3 66/70/3
f 67/71/3 65/69/3 66/70/3 68/72/3
f 13/13/3 67/71/3 68/72/3 69/73/3
f 15/15/3 13/13/3 69/73/3 70/74/3
f 71/75/3 15/15/3 70/74/3 72/76/3
f 73/77/3 71/75/3 72/76/3 74/78/3
f 75/79/3 73/77/3 74/78/3 76/80/3
f 77/81/3 75/79/3 76/80/3 78/82/3
f 21/21/3 77/81/3 78/82/3 79/83/3
f 23/23/3 21/21/3 79/83/3 80/84/3
f 81/85/3 23/23/3 80/84/3 82/86/3
f 83/87/3 81/85/3 82/86/3 84/88/3
f 56/58/3 83/87/3 84/88/3 57/59/3
s 1
f 55/57/9 26/26/9 25/25/10 56/58/10
f 5/5/11 2/2/11 26/26/9 55/57/9
f 8/8/12 4/4/12 3/3/12 6/6/12
f 61/63/13 31/31/13 1/1/14 7/7/14
f 63/65/15 33/34/15 31/33/13 61/66/13
f 65/69/16 35/37/16 33/34/15 63/65/15
f 67/71/17 37/39/17 35/37/16 65/69/16
f 13/13/18 10/10/18 37/39/17 67/71/17
f 16/16/19 12/12/19 11/11/19 14/14/19
f 71/75/20 41/43/20 9/9/21 15/15/21
f 73/77/22 43/45/22 41/43/20 71/75/20
f 75/79/23 45/47/23 43/45/22 73/77/22
f 77/81/24 47/49/24 45/47/23 75/79/23
f 21/21/25 18/18/25 47/49/24 77/81/24
f 24/24/26 20/20/26 19/19/26 22/22/26
f 81/85/27 51/53/27 17/17/28 23/23/28
f 83/87/29 53/55/29 51/53/27 81/85/27
f 56/58/10 25/25/10 53/55/29 83/87/29
f 85/89/30 86/90/31 87/91/32 88/92/32
f 89/93/33 90/94/34 91/95/35 92/96/33
f 90/94/34 93/97/36 94/98/37 91/95/35
f 93/97/36 95/99/38 96/100/39 94/98/37
f 95/99/38 97/101/40 98/102/41 96/100/39
f 97/101/40 99/103/42 100/104/43 98/102/41
f 99/103/42 101/105/44 102/106/45 100/104/43
f 101/105/44 103/107/46 104/108/47 102/106/45
f 103/107/46 105/109/48 106/110/49 104/108/47
f 105/109/48 107/111/50 108/112/50 106/110/49
f 87/91/51 86/90/52 99/103/53 97/101/51 95/99/51 93/97/51 90/94/51 89/93/51
f 88/92/54 87/91/54 89/93/54 92/96/54
f 85/89/55 100/104/56 102/106/57 104/108/57 106/110/57 108/112/58 109/113/59
f 110/114/60 109/113/59 108/112/58 107/111/60
f 85/89/30 109/113/61 110/114/61 86/90/31
f 85/89/55 88/92/62 92/96/62 91/95/62 94/98/62 96/100/62 98/102/62 100/104/56
f 86/90/52 110/114/63 107/111/63 105/109/63 103/107/63 101/105/63 99/103/53
f 111/115/64 112/116/65 113/117/66 114/118/66
f 115/119/67 116/120/68 117/121/69 118/122/67
f 116/120/68 119/123/70 120/124/71 117/121/69
f 119/123/70 121/125/72 122/126/73 120/124/71
f 121/125/72 123/127/74 124/128/75 122/126/73
f 123/127/74 125/129/76 126/130/77 124/128/75
f 125/129/76 127/131/78 128/132/79 126/130/77
f 127/131/78 129/133/80 130/134/81 128/132/79
f 129/133/80 131/135/82 132/136/83 130/134/81
f 131/135/82 133/137/84 134/138/84 132/136/83
f 113/117/85 112/116/86 125/129/87 123/127/85 121/125/85 119/123/85 116/120/85 115/119/85
f 114/118/88 113/117/88 115/119/88 118/122/88
f 111/115/89 126/130/90 128/132/91 130/134/91 132/136/91 134/138/92 135/139/93
f 136/140/94 135/139/93 134/138/92 133/137/94
f 111/115/64 135/139/95 136/140/95 112/116/65
f 111/115/89 114/118/96 118/122/96 117/121/96 120/124/96 122/126/96 124/128/96 126/130/90
f 112/116/86 136/140/97 133/137/97 131/135/97 129/133/97 127/131/97 125/129/87
f 28/28/98 27/27/20 58/60/20 57/59/98
f 27/27/20 29/29/22 59/61/22 58/60/20
f 29/29/22 30/30/23 60/62/23 59/61/22
f 30/30/23 32/32/24 62/64/24 60/62/23
f 32/36/24 34/35/99 64/68/99 62/67/24
f 34/35/99 36/38/100 66/70/100 64/68/99
f 36/38/100 38/40/27 68/72/27 66/70/100
f 38/40/27 39/41/29 69/73/29 68/72/27
f 39/41/29 40/42/10 70/74/10 69/73/29
f 40/42/10 42/44/9 72/76/9 70/74/10
f 42/44/9 44/46/101 74/78/101 72/76/9
f 44/46/101 46/48/102 76/80/102 74/78/101
f 46/48/102 48/50/13 78/82/13 76/80/102
f 48/50/13 49/51/15 79/83/15 78/82/13
f 49/51/15 50/52/16 80/84/16 79/83/15
f 50/52/16 52/54/17 82/86/17 80/84/16
f 52/54/17 54/56/103 84/88/103 82/86/17
f 54/56/103 28/28/98 57/59/98 84/88/103
f 137/141/104 138/142/105 139/143/106 140/144/106
f 141/145/107 142/146/108 143/147/109 144/148/107
f 142/146/108 145/149/110 146/150/111 143/147/109
f 145/149/110 147/151/112 148/152/113 146/150/111
f 147/151/112 149/153/114 150/154/115 148/152/113
f 149/153/114 151/155/116 152/156/117 150/154/115
f 151/155/116 153/157/118 154/158/119 152/156/117
f 153/157/118 155/159/120 156/160/121 154/158/119
f 155/159/120 157/161/122 158/162/123 156/160/121
f 157/161/122 159/163/124 160/164/124 158/162/123
f 139/143/125 138/142/126 151/155/127 149/153/125 147/151/125 145/149/125 142/146/125 141/145/125
f 140/144/128 139/143/128 141/145/128 144/148/128
f 137/141/129 152/156/130 154/158/131 156/160/131 158/162/131 160/164/132 161/165/133
f 162/166/134 161/165/133 160/164/132 159/163/134
f 137/141/104 161/165/135 162/166/135 138/142/105
f 137/141/129 140/144/136 144/148/136 143/147/136 146/150/136 148/152/136 150/154/136 152/156/130
f 138/142/126 162/166/137 159/163/137 157/161/137 155/159/137 153/157/137 151/155/127
