# Blender v2.83 (sub 15) OBJ File: ''
# www.blender.org
mtllib rotor.mtl
o Rotary_Glass_Mesh.003
v -51.462227 55.164642 13.843759
v -51.920937 55.947151 13.843759
v -51.920937 55.947151 6.577629
v -51.462227 55.164646 6.577629
v 11.840736 56.308395 13.843765
v 11.392422 55.519882 13.843766
v 11.392424 55.519882 6.577635
v 11.840738 56.308395 6.577635
v -20.728189 110.516312 13.843759
v -19.821163 110.522308 13.843759
v -19.821163 110.522308 6.577629
v -20.728189 110.516312 6.577629
v -1.536623 64.034058 13.739708
v -1.373308 64.064087 6.536959
v 9.260553 66.093185 6.557900
v 11.698223 56.392956 13.739710
v 11.752739 56.488342 6.534575
v 14.656469 63.016129 6.557928
v -1.437000 64.206604 13.757139
v -1.274351 64.235489 12.541602
v -0.791332 64.321281 11.362998
v -0.002628 64.461372 10.257139
v 1.067799 64.651497 9.257627
v 2.387423 64.885887 8.394830
v 3.916149 65.157410 7.694963
v 5.607529 65.457832 7.179293
v 7.410172 65.778008 6.863488
v 9.269300 66.108223 6.757143
v 11.798664 56.569275 13.757141
v 11.851891 56.663605 12.541604
v 12.008226 56.944687 11.363000
v 12.257956 57.406624 10.257141
v 12.585749 58.039055 9.257628
v 12.972021 58.826630 8.394832
v 13.394629 59.748550 7.694963
v 13.830851 60.778496 7.179294
v 14.259413 61.885139 6.863488
v 14.662203 63.033218 6.757142
v -38.009872 62.929119 13.739702
v -38.065517 62.772675 6.536953
v -41.625191 52.548927 6.557892
v -51.244678 55.287956 13.739700
v -51.189323 55.193062 6.534565
v -46.987961 49.414459 6.557919
v -37.910248 62.756573 13.757133
v -37.966557 62.601265 12.541596
v -38.133766 62.140068 11.362992
v -38.406799 61.386986 10.257133
v -38.777359 60.364906 9.257620
v -39.234184 59.104885 8.394823
v -39.763397 57.645203 7.694957
v -40.348915 56.030216 7.179286
v -40.972954 54.308998 6.863480
v -41.616547 52.533836 6.757134
v -51.142204 55.112816 13.757132
v -51.087124 55.019554 12.541595
v -50.921867 54.743622 11.362990
v -50.646683 54.296387 10.257132
v -50.262871 53.696289 9.257618
v -49.773949 52.967979 8.394821
v -49.186844 52.141037 7.694954
v -48.513000 51.248280 7.179285
v -47.768898 50.323814 6.863479
v -46.976028 49.400948 6.757133
v -22.552305 74.887512 13.843761
v -22.703897 73.993225 13.843761
v -22.540482 73.101013 13.843761
v -22.081768 72.318504 13.843760
v -21.383085 71.740082 13.843760
v -20.528704 71.435501 13.843760
v -19.621675 71.441498 13.843761
v -18.771400 71.757362 13.843761
v -18.080435 72.344986 13.843761
v -17.632118 73.133499 13.843761
v -17.480526 74.027794 13.843761
v -17.643942 74.919998 13.843761
v -18.102655 75.702507 13.843762
v -18.801338 76.280937 13.843762
v -19.655718 76.585518 13.843762
v -20.562748 76.579514 13.843761
v -21.413023 76.263649 13.843761
v -22.103989 75.676025 13.843761
v -22.703896 73.993225 6.577631
v -22.540482 73.101013 6.577631
v -22.081768 72.318504 6.577631
v -21.383085 71.740074 6.577631
v -20.528704 71.435493 6.577631
v -19.621675 71.441498 6.577631
v -18.771400 71.757362 6.577631
v -18.080433 72.344986 6.577631
v -17.632118 73.133499 6.577631
v -17.480526 74.027794 6.577631
v -17.643942 74.919998 6.577631
v -18.102654 75.702507 6.577631
v -18.801336 76.280937 6.577631
v -19.655718 76.585518 6.577630
v -20.562746 76.579514 6.577630
v -21.413021 76.263649 6.577630
v -22.103989 75.676025 6.577630
v -22.552305 74.887512 6.577630
v -21.857981 74.639992 13.843761
v -21.966789 73.998100 13.843761
v -21.849495 73.357704 13.843761
v -21.520247 72.796051 13.843761
v -21.018755 72.380875 13.843760
v -20.405510 72.162254 13.843760
v -19.754477 72.166565 13.843761
v -19.144180 72.393280 13.843762
v -18.648230 72.815056 13.843761
v -18.326445 73.381020 13.843761
v -18.217636 74.022911 13.843761
v -18.334930 74.663307 13.843761
v -18.664177 75.224968 13.843761
v -19.165667 75.640144 13.843762
v -19.778912 75.858757 13.843762
v -20.429945 75.854446 13.843761
v -21.040243 75.627731 13.843760
v -21.536194 75.205956 13.843761
v -21.966787 73.998100 6.577631
v -21.849493 73.357704 6.577631
v -21.520245 72.796051 6.577631
v -21.018755 72.380875 6.577631
v -20.405510 72.162254 6.577631
v -19.754477 72.166565 6.577631
v -19.144178 72.393280 6.577631
v -18.648228 72.815056 6.577631
v -18.326443 73.381020 6.577631
v -18.217636 74.022911 6.577631
v -18.334929 74.663307 6.577630
v -18.664177 75.224960 6.577631
v -19.165667 75.640137 6.577631
v -19.778912 75.858757 6.577630
v -20.429945 75.854446 6.577630
v -21.040243 75.627731 6.577630
v -21.536194 75.205956 6.577630
v -21.857981 74.639992 6.577630
v -20.730148 95.068344 13.739705
v -20.837807 95.194763 6.536955
v -27.911993 103.389404 6.557894
v -20.730181 110.350601 13.739705
v -20.840042 110.350113 6.534569
v -27.945135 109.600929 6.557921
v -20.929386 95.068344 13.757136
v -21.035730 95.194756 12.541599
v -21.351536 95.570168 11.362994
v -21.867207 96.183159 10.257135
v -22.567074 97.015114 9.257623
v -23.429874 98.040749 8.394826
v -24.429386 99.228905 7.694959
v -25.535246 100.543472 7.179287
v -26.713850 101.944519 6.863482
v -27.929388 103.389465 6.757136
v -20.933098 110.349426 13.757136
v -21.041403 110.348358 12.541598
v -21.362997 110.343208 11.362995
v -21.887905 110.328506 10.257135
v -22.599506 110.296173 9.257623
v -23.474703 110.236900 8.394825
v -24.484411 110.141930 7.694957
v -25.594484 110.004738 7.179287
v -26.767143 109.822563 6.863482
v -27.962805 109.597351 6.757135
vt 0.916667 0.500000
vt 0.861111 0.500000
vt 0.861111 0.500000
vt 0.916667 0.500000
vt 0.861111 0.250000
vt 0.861111 0.250000
vt 0.916667 0.250000
vt 0.916667 0.250000
vt 0.250000 0.500000
vt 0.194444 0.500000
vt 0.194444 0.500000
vt 0.250000 0.500000
vt 0.194444 0.250000
vt 0.194444 0.250000
vt 0.250000 0.250000
vt 0.250000 0.250000
vt 0.583333 0.500000
vt 0.527778 0.500000
vt 0.527778 0.500000
vt 0.583333 0.500000
vt 0.527778 0.250000
vt 0.527778 0.250000
vt 0.583333 0.250000
vt 0.583333 0.250000
vt 0.750000 0.500000
vt 0.805556 0.500000
vt 0.805556 0.500000
vt 0.750000 0.500000
vt 0.861111 0.500000
vt 0.916667 0.500000
vt 0.972222 0.500000
vt 0.972222 0.500000
vt -0.027778 0.500000
vt 0.027778 0.500000
vt 0.027778 0.500000
vt -0.027778 0.500000
vt 0.083333 0.500000
vt 0.083333 0.500000
vt 0.138889 0.500000
vt 0.138889 0.500000
vt 0.194444 0.500000
vt 0.250000 0.500000
vt 0.305556 0.500000
vt 0.305556 0.500000
vt 0.361111 0.500000
vt 0.361111 0.500000
vt 0.416667 0.500000
vt 0.416667 0.500000
vt 0.472222 0.500000
vt 0.472222 0.500000
vt 0.527778 0.500000
vt 0.583333 0.500000
vt 0.638889 0.500000
vt 0.638889 0.500000
vt 0.694444 0.500000
vt 0.694444 0.500000
vt 0.805556 0.250000
vt 0.750000 0.250000
vt 0.750000 0.250000
vt 0.805556 0.250000
vt 0.861111 0.250000
vt 0.916667 0.250000
vt 0.972222 0.250000
vt 0.972222 0.250000
vt 0.027778 0.250000
vt -0.027778 0.250000
vt -0.027778 0.250000
vt 0.027778 0.250000
vt 0.083333 0.250000
vt 0.083333 0.250000
vt 0.138889 0.250000
vt 0.138889 0.250000
vt 0.194444 0.250000
vt 0.250000 0.250000
vt 0.305556 0.250000
vt 0.305556 0.250000
vt 0.361111 0.250000
vt 0.361111 0.250000
vt 0.416667 0.250000
vt 0.416667 0.250000
vt 0.472222 0.250000
vt 0.472222 0.250000
vt 0.527778 0.250000
vt 0.583333 0.250000
vt 0.638889 0.250000
vt 0.638889 0.250000
vt 0.694444 0.250000
vt 0.694444 0.250000
vt 0.777778 0.000000
vt 0.777778 1.000000
vt 0.750000 1.000000
vt 0.750000 0.000000
vt 0.750000 1.000000
vt 0.777778 1.000000
vt 0.777778 0.000000
vt 0.750000 0.000000
vt 0.805556 1.000000
vt 0.805556 0.000000
vt 0.833333 1.000000
vt 0.833333 0.000000
vt 0.861111 1.000000
vt 0.861111 0.000000
vt 0.888889 1.000000
vt 0.888889 0.000000
vt 0.916667 1.000000
vt 0.916667 0.000000
vt 0.944444 1.000000
vt 0.944444 0.000000
vt 0.972222 1.000000
vt 0.972222 0.000000
vt 1.000000 1.000000
vt 1.000000 0.000000
vt 1.000000 0.000000
vt 1.000000 1.000000
vt 0.777778 0.000000
vt 0.777778 1.000000
vt 0.750000 1.000000
vt 0.750000 0.000000
vt 0.750000 1.000000
vt 0.777778 1.000000
vt 0.777778 0.000000
vt 0.750000 0.000000
vt 0.805556 1.000000
vt 0.805556 0.000000
vt 0.833333 1.000000
vt 0.833333 0.000000
vt 0.861111 1.000000
vt 0.861111 0.000000
vt 0.888889 1.000000
vt 0.888889 0.000000
vt 0.916667 1.000000
vt 0.916667 0.000000
vt 0.944444 1.000000
vt 0.944444 0.000000
vt 0.972222 1.000000
vt 0.972222 0.000000
vt 1.000000 1.000000
vt 1.000000 0.000000
vt 1.000000 0.000000
vt 1.000000 1.000000
vt 0.777778 0.000000
vt 0.777778 1.000000
vt 0.750000 1.000000
vt 0.750000 0.000000
vt 0.750000 1.000000
vt 0.777778 1.000000
vt 0.777778 0.000000
vt 0.750000 0.000000
vt 0.805556 1.000000
vt 0.805556 0.000000
vt 0.833333 1.000000
vt 0.833333 0.000000
vt 0.861111 1.000000
vt 0.861111 0.000000
vt 0.888889 1.000000
vt 0.888889 0.000000
vt 0.916667 1.000000
vt 0.916667 0.000000
vt 0.944444 1.000000
vt 0.944444 0.000000
vt 0.972222 1.000000
vt 0.972222 0.000000
vt 1.000000 1.000000
vt 1.000000 0.000000
vt 1.000000 0.000000
vt 1.000000 1.000000
vn -0.0000 -0.0000 1.0000
vn -0.5042 0.8636 0.0000
vn 0.0000 0.0000 -1.0000
vn 0.5042 -0.8636 -0.0000
vn -0.4958 -0.8685 -0.0000
vn 0.4958 0.8685 0.0000
vn 1.0000 0.0049 0.0000
vn -1.0000 -0.0049 -0.0000
vn -1.0000 -0.0066 -0.0000
vn -0.9419 0.3358 -0.0000
vn -0.9836 -0.1802 -0.0000
vn -0.8627 -0.5057 -0.0000
vn -0.4943 -0.8693 0.0000
vn -0.6377 -0.7703 0.0000
vn -0.1671 -0.9859 0.0000
vn 0.1802 -0.9836 0.0000
vn 0.5057 -0.8627 0.0000
vn 0.6478 -0.7618 0.0000
vn 0.8693 -0.4943 0.0000
vn 1.0000 0.0066 0.0000
vn 0.9859 -0.1671 0.0000
vn 0.9374 0.3482 0.0000
vn 0.7618 0.6478 0.0000
vn 0.4943 0.8693 0.0000
vn 0.3358 0.9419 -0.0000
vn -0.0066 1.0000 0.0000
vn -0.5057 0.8627 -0.0000
vn -0.3482 0.9374 -0.0000
vn -0.7703 0.6377 -0.0000
vn -0.4535 -0.7856 -0.4209
vn -0.3623 -0.6274 -0.6892
vn -0.4999 -0.8660 -0.0151
vn 0.4978 0.8628 0.0879
vn 0.4919 0.8529 0.1750
vn 0.4929 0.8546 0.1633
vn 0.4688 0.8135 0.3441
vn 0.4725 0.8199 0.3232
vn 0.4313 0.7497 0.5020
vn 0.4387 0.7623 0.4758
vn 0.3811 0.6637 0.6436
vn 0.3923 0.6829 0.6162
vn 0.3199 0.5587 0.7652
vn 0.3344 0.5837 0.7399
vn 0.2499 0.4377 0.8637
vn 0.2669 0.4672 0.8429
vn 0.1729 0.3037 0.9370
vn 0.1915 0.3361 0.9221
vn 0.0909 0.1598 0.9830
vn 0.1101 0.1935 0.9749
vn 0.0436 0.0766 0.9961
vn 0.8813 -0.4726 -0.0053
vn 0.8901 -0.4524 -0.0547
vn 0.8936 -0.4418 -0.0794
vn -0.0432 -0.0748 0.9963
vn -0.2428 0.9692 -0.0402
vn -0.2129 0.9755 -0.0563
vn -0.1899 0.9794 -0.0685
vn 0.1619 0.9833 -0.0832
vn 0.1550 0.9844 -0.0830
vn 0.4934 0.8653 -0.0877
vn 0.0015 0.0028 -1.0000
vn -0.2633 0.9643 -0.0291
vn 0.8988 -0.4177 -0.1327
vn -0.4536 0.7856 -0.4209
vn -0.3622 0.6275 -0.6892
vn -0.5000 0.8659 -0.0151
vn 0.4983 -0.8625 0.0879
vn 0.4927 -0.8524 0.1750
vn 0.4937 -0.8542 0.1633
vn 0.4701 -0.8127 0.3441
vn 0.4738 -0.8192 0.3232
vn 0.4336 -0.7484 0.5020
vn 0.4408 -0.7611 0.4758
vn 0.3843 -0.6619 0.6436
vn 0.3953 -0.6812 0.6162
vn 0.3239 -0.5564 0.7652
vn 0.3383 -0.5815 0.7399
vn 0.2541 -0.4352 0.8637
vn 0.2711 -0.4647 0.8429
vn 0.1765 -0.3016 0.9370
vn 0.1953 -0.3339 0.9221
vn 0.0929 -0.1586 0.9830
vn 0.1125 -0.1921 0.9749
vn 0.0445 -0.0761 0.9961
vn -0.8499 -0.5269 -0.0053
vn -0.8369 -0.5447 -0.0547
vn -0.8294 -0.5530 -0.0794
vn -0.0432 0.0748 0.9963
vn 0.9608 -0.2743 -0.0402
vn 0.9512 -0.3034 -0.0563
vn 0.9431 -0.3252 -0.0685
vn 0.7706 -0.6319 -0.0832
vn 0.7750 -0.6264 -0.0830
vn 0.5027 -0.8600 -0.0877
vn 0.0017 -0.0027 -1.0000
vn 0.9667 -0.2541 -0.0291
vn -0.8112 -0.5695 -0.1328
vn 0.9419 -0.3358 0.0000
vn 0.1671 0.9859 0.0000
vn -0.1802 0.9836 0.0000
vn -0.9374 -0.3482 0.0000
vn -0.7618 -0.6478 0.0000
vn 0.7703 -0.6377 0.0000
vn 0.9071 0.0000 -0.4209
vn 0.7245 -0.0000 -0.6892
vn 0.9999 0.0001 -0.0151
vn -0.9961 -0.0003 0.0879
vn -0.9846 -0.0004 0.1750
vn -0.9866 -0.0004 0.1633
vn -0.9389 -0.0008 0.3441
vn -0.9463 -0.0007 0.3232
vn -0.8649 -0.0013 0.5020
vn -0.8796 -0.0012 0.4758
vn -0.7653 -0.0019 0.6436
vn -0.7876 -0.0017 0.6162
vn -0.6438 -0.0023 0.7652
vn -0.6727 -0.0022 0.7399
vn -0.5040 -0.0024 0.8637
vn -0.5380 -0.0025 0.8429
vn -0.3494 -0.0021 0.9370
vn -0.3868 -0.0022 0.9221
vn -0.1838 -0.0012 0.9830
vn -0.2226 -0.0014 0.9749
vn -0.0881 -0.0005 0.9961
vn -0.0314 0.9995 -0.0053
vn -0.0533 0.9971 -0.0547
vn -0.0642 0.9948 -0.0794
vn 0.0864 0.0000 0.9963
vn -0.7180 -0.6949 -0.0402
vn -0.7383 -0.6721 -0.0563
vn -0.7532 -0.6542 -0.0685
vn -0.9325 -0.3514 -0.0832
vn -0.9300 -0.3580 -0.0830
vn -0.9961 -0.0053 -0.0877
vn -0.0032 -0.0001 -1.0000
vn -0.7034 -0.7102 -0.0291
vn -0.0876 0.9873 -0.1327
usemtl glass1
s off
f 68/1/1 67/2/1 2/3/1 1/4/1
f 67/2/2 84/5/2 3/6/2 2/3/2
f 84/5/3 85/7/3 4/8/3 3/6/3
f 85/7/4 68/1/4 1/4/4 4/8/4
f 74/9/1 73/10/1 6/11/1 5/12/1
f 73/10/5 90/13/5 7/14/5 6/11/5
f 90/13/3 91/15/3 8/16/3 7/14/3
f 91/15/6 74/9/6 5/12/6 8/16/6
f 80/17/1 79/18/1 10/19/1 9/20/1
f 79/18/7 96/21/7 11/22/7 10/19/7
f 96/21/3 97/23/3 12/24/3 11/22/3
f 97/23/8 80/17/8 9/20/8 12/24/8
f 65/25/1 66/26/1 102/27/1 101/28/1
f 66/26/1 67/2/1 103/29/1 102/27/1
f 67/2/1 68/1/1 104/30/1 103/29/1
f 68/1/1 69/31/1 105/32/1 104/30/1
f 69/33/1 70/34/1 106/35/1 105/36/1
f 70/34/1 71/37/1 107/38/1 106/35/1
f 71/37/1 72/39/1 108/40/1 107/38/1
f 72/39/1 73/10/1 109/41/1 108/40/1
f 73/10/1 74/9/1 110/42/1 109/41/1
f 74/9/1 75/43/1 111/44/1 110/42/1
f 75/43/1 76/45/1 112/46/1 111/44/1
f 76/45/1 77/47/1 113/48/1 112/46/1
f 77/47/1 78/49/1 114/50/1 113/48/1
f 78/49/1 79/18/1 115/51/1 114/50/1
f 79/18/1 80/17/1 116/52/1 115/51/1
f 80/17/1 81/53/1 117/54/1 116/52/1
f 81/53/1 82/55/1 118/56/1 117/54/1
f 82/55/1 65/25/1 101/28/1 118/56/1
f 83/57/3 100/58/3 136/59/3 119/60/3
f 84/5/3 83/57/3 119/60/3 120/61/3
f 85/7/3 84/5/3 120/61/3 121/62/3
f 86/63/3 85/7/3 121/62/3 122/64/3
f 87/65/3 86/66/3 122/67/3 123/68/3
f 88/69/3 87/65/3 123/68/3 124/70/3
f 89/71/3 88/69/3 124/70/3 125/72/3
f 90/13/3 89/71/3 125/72/3 126/73/3
f 91/15/3 90/13/3 126/73/3 127/74/3
f 92/75/3 91/15/3 127/74/3 128/76/3
f 93/77/3 92/75/3 128/76/3 129/78/3
f 94/79/3 93/77/3 129/78/3 130/80/3
f 95/81/3 94/79/3 130/80/3 131/82/3
f 96/21/3 95/81/3 131/82/3 132/83/3
f 97/23/3 96/21/3 132/83/3 133/84/3
f 98/85/3 97/23/3 133/84/3 134/86/3
f 99/87/3 98/85/3 134/86/3 135/88/3
f 100/58/3 99/87/3 135/88/3 136/59/3
s 1
f 83/57/9 66/26/9 65/25/10 100/58/10
f 84/5/11 67/2/11 66/26/9 83/57/9
f 4/8/12 1/4/12 2/3/12 3/6/12
f 86/63/13 69/31/13 68/1/14 85/7/14
f 87/65/15 70/34/15 69/33/13 86/66/13
f 88/69/16 71/37/16 70/34/15 87/65/15
f 89/71/17 72/39/17 71/37/16 88/69/16
f 90/13/18 73/10/18 72/39/17 89/71/17
f 8/16/19 5/12/19 6/11/19 7/14/19
f 92/75/20 75/43/20 74/9/21 91/15/21
f 93/77/22 76/45/22 75/43/20 92/75/20
f 94/79/23 77/47/23 76/45/22 93/77/22
f 95/81/24 78/49/24 77/47/23 94/79/23
f 96/21/25 79/18/25 78/49/24 95/81/24
f 12/24/26 9/20/26 10/19/26 11/22/26
f 98/85/27 81/53/27 80/17/28 97/23/28
f 99/87/29 82/55/29 81/53/27 98/85/27
f 100/58/10 65/25/10 82/55/29 99/87/29
f 14/89/30 17/90/31 16/91/32 13/92/32
f 29/93/33 30/94/34 20/95/35 19/96/33
f 30/94/34 31/97/36 21/98/37 20/95/35
f 31/97/36 32/99/38 22/100/39 21/98/37
f 32/99/38 33/101/40 23/102/41 22/100/39
f 33/101/40 34/103/42 24/104/43 23/102/41
f 34/103/42 35/105/44 25/106/45 24/104/43
f 35/105/44 36/107/46 26/108/47 25/106/45
f 36/107/46 37/109/48 27/110/49 26/108/47
f 37/109/48 38/111/50 28/112/50 27/110/49
f 16/91/51 17/90/52 34/103/53 33/101/51 32/99/51 31/97/51 30/94/51 29/93/51
f 13/92/54 16/91/54 29/93/54 19/96/54
f 14/89/55 24/104/56 25/106/57 26/108/57 27/110/57 28/112/58 15/113/59
f 18/114/60 15/113/59 28/112/58 38/111/60
f 14/89/30 15/113/61 18/114/61 17/90/31
f 14/89/55 13/92/62 19/96/62 20/95/62 21/98/62 22/100/62 23/102/62 24/104/56
f 17/90/52 18/114/63 38/111/63 37/109/63 36/107/63 35/105/63 34/103/53
f 40/115/64 43/116/65 42/117/66 39/118/66
f 55/119/67 56/120/68 46/121/69 45/122/67
f 56/120/68 57/123/70 47/124/71 46/121/69
f 57/123/70 58/125/72 48/126/73 47/124/71
f 58/125/72 59/127/74 49/128/75 48/126/73
f 59/127/74 60/129/76 50/130/77 49/128/75
f 60/129/76 61/131/78 51/132/79 50/130/77
f 61/131/78 62/133/80 52/134/81 51/132/79
f 62/133/80 63/135/82 53/136/83 52/134/81
f 63/135/82 64/137/84 54/138/84 53/136/83
f 42/117/85 43/116/86 60/129/87 59/127/85 58/125/85 57/123/85 56/120/85 55/119/85
f 39/118/88 42/117/88 55/119/88 45/122/88
f 40/115/89 50/130/90 51/132/91 52/134/91 53/136/91 54/138/92 41/139/93
f 44/140/94 41/139/93 54/138/92 64/137/94
f 40/115/64 41/139/95 44/140/95 43/116/65
f 40/115/89 39/118/96 45/122/96 46/121/96 47/124/96 48/126/96 49/128/96 50/130/90
f 43/116/86 44/140/97 64/137/97 63/135/97 62/133/97 61/131/97 60/129/87
f 101/28/98 102/27/20 119/60/20 136/59/98
f 102/27/20 103/29/22 120/61/22 119/60/20
f 103/29/22 104/30/23 121/62/23 120/61/22
f 104/30/23 105/32/24 122/64/24 121/62/23
f 105/36/24 106/35/99 123/68/99 122/67/24
f 106/35/99 107/38/100 124/70/100 123/68/99
f 107/38/100 108/40/27 125/72/27 124/70/100
f 108/40/27 109/41/29 126/73/29 125/72/27
f 109/41/29 110/42/10 127/74/10 126/73/29
f 110/42/10 111/44/9 128/76/9 127/74/10
f 111/44/9 112/46/101 129/78/101 128/76/9
f 112/46/101 113/48/102 130/80/102 129/78/101
f 113/48/102 114/50/13 131/82/13 130/80/102
f 114/50/13 115/51/15 132/83/15 131/82/13
f 115/51/15 116/52/16 133/84/16 132/83/15
f 116/52/16 117/54/17 134/86/17 133/84/16
f 117/54/17 118/56/103 135/88/103 134/86/17
f 118/56/103 101/28/98 136/59/98 135/88/103
f 138/141/104 141/142/105 140/143/106 137/144/106
f 153/145/107 154/146/108 144/147/109 143/148/107
f 154/146/108 155/149/110 145/150/111 144/147/109
f 155/149/110 156/151/112 146/152/113 145/150/111
f 156/151/112 157/153/114 147/154/115 146/152/113
f 157/153/114 158/155/116 148/156/117 147/154/115
f 158/155/116 159/157/118 149/158/119 148/156/117
f 159/157/118 160/159/120 150/160/121 149/158/119
f 160/159/120 161/161/122 151/162/123 150/160/121
f 161/161/122 162/163/124 152/164/124 151/162/123
f 140/143/125 141/142/126 158/155/127 157/153/125 156/151/125 155/149/125 154/146/125 153/145/125
f 137/144/128 140/143/128 153/145/128 143/148/128
f 138/141/129 148/156/130 149/158/131 150/160/131 151/162/131 152/164/132 139/165/133
f 142/166/134 139/165/133 152/164/132 162/163/134
f 138/141/104 139/165/135 142/166/135 141/142/105
f 138/141/129 137/144/136 143/148/136 144/147/136 145/150/136 146/152/136 147/154/136 148/156/130
f 141/142/126 142/166/137 162/163/137 161/161/137 160/159/137 159/157/137 158/155/127
