# Blender v2.83 (sub 15) OBJ File: ''
# www.blender.org
mtllib rotor2.mtl
o Rotary_Glass_Mesh.003
v -2.032840 -1.614564 4.346722
v -2.464188 -0.816643 4.346725
v -32.420910 -16.943039 4.346714
v -31.989569 -17.740967 4.346714
v -2.464188 -0.816642 -2.919405
v -32.420910 -16.943039 -2.919415
v -2.032840 -1.614563 -2.919405
v -31.989569 -17.740959 -2.919415
v 2.442358 -0.954110 4.346725
v 1.967011 -1.726632 4.346724
v 30.839701 -19.562008 4.346721
v 31.315046 -18.789490 4.346720
v 1.967013 -1.726623 -2.919405
v 30.839705 -19.562008 -2.919410
v 2.442358 -0.954109 -2.919405
v 31.315046 -18.789490 -2.919410
v -0.367212 2.591300 4.346727
v 0.539482 2.565902 4.346729
v 1.549050 36.488068 4.346742
v 0.642360 36.513474 4.346742
v 0.539482 2.565911 -2.919404
v 1.549050 36.488068 -2.919389
v -0.367210 2.591309 -2.919404
v 0.642360 36.513474 -2.919389
v -2.414155 0.969199 4.346725
v -2.596617 0.080688 4.346725
v -1.859782 0.060043 4.346725
v -1.728818 0.697784 4.346725
v -1.764729 -0.584031 4.346725
v -1.455124 -1.156747 4.346725
v -1.354604 -2.216820 4.346722
v -0.968305 -1.589036 4.346722
v -0.511277 -2.550797 4.346722
v -0.362997 -1.828751 4.346722
v 0.395415 -2.576211 4.346724
v 0.287796 -1.846986 4.346724
v 1.256116 -2.289971 4.346724
v 0.905575 -1.641534 4.346724
v 1.415829 -1.237183 4.346725
v 1.757015 -0.682702 4.346725
v 2.624820 -0.065598 4.346725
v 1.887982 -0.044961 4.346725
v 2.492391 0.831733 4.346725
v 1.792930 0.599113 4.346725
v 2.061041 1.629646 4.346729
v 1.483325 1.171836 4.346725
v 1.382805 2.231918 4.346729
v 0.996510 1.604125 4.346729
v 0.391201 1.843841 4.346729
v -0.259591 1.862067 4.346727
v -1.227915 2.305061 4.346727
v -0.877372 1.656615 4.346725
v -1.938808 1.741714 4.346727
v -1.387628 1.252265 4.346725
v -2.596615 0.080689 -2.919405
v -2.414155 0.969201 -2.919406
v -1.728818 0.697785 -2.919406
v -1.859782 0.060044 -2.919405
v -1.764729 -0.584030 -2.919405
v -1.455121 -1.156745 -2.919405
v -1.354604 -2.216827 -2.919406
v -0.968305 -1.589035 -2.919405
v -0.511277 -2.550804 -2.919406
v -0.362997 -1.828750 -2.919405
v 0.395415 -2.576210 -2.919406
v 0.287796 -1.846984 -2.919405
v 1.256116 -2.289970 -2.919406
v 0.905577 -1.641532 -2.919405
v 1.415832 -1.237182 -2.919405
v 1.757019 -0.682693 -2.919405
v 2.624820 -0.065597 -2.919405
v 1.887982 -0.044960 -2.919405
v 2.492391 0.831742 -2.919405
v 1.792930 0.599114 -2.919406
v 2.061045 1.629662 -2.919405
v 1.483325 1.171830 -2.919405
v 1.382805 2.231934 -2.919404
v 0.996510 1.604126 -2.919405
v 0.391202 1.843850 -2.919405
v -0.259591 1.862076 -2.919405
v -1.227911 2.305069 -2.919404
v -0.877372 1.656632 -2.919405
v -1.938808 1.741723 -2.919405
v -1.387628 1.252266 -2.919406
v 18.377432 -10.580962 -2.960082
v 31.233332 -18.606602 -2.962469
v 31.175545 -18.700043 4.242666
v 18.213175 -10.605325 4.242667
v 31.282032 -18.527306 4.260096
v 31.338491 -18.434875 3.044559
v 18.482264 -10.413095 3.044563
v 18.318712 -10.436334 4.260098
v 31.504465 -18.159378 1.865955
v 18.967962 -10.344070 1.865957
v 31.770041 -17.706360 0.760097
v 19.761044 -10.231369 0.760098
v 32.119530 -17.085655 -0.239416
v 20.837410 -10.078423 -0.239414
v 32.532841 -16.311928 -1.102213
v 22.164358 -9.889854 -1.102210
v 32.987114 -15.405190 -1.802080
v 23.701569 -9.671425 -1.802077
v 33.458725 -14.390968 -2.317749
v 25.402336 -9.429741 -2.317748
v 33.925350 -13.299820 -2.633554
v 27.214981 -9.172165 -2.633551
v 34.367641 -12.166374 -2.739900
v 29.084429 -8.906509 -2.739897
v 29.075165 -8.921233 -2.939140
v 34.361324 -12.183257 -2.939114
v -18.337490 -10.601295 -2.960088
v -31.715839 -17.722008 -2.962480
v -31.767878 -17.625259 4.242655
v -18.276463 -10.446877 4.242661
v -31.671528 -17.803841 4.260086
v -31.619709 -17.898952 3.044550
v -18.244524 -10.776032 3.044557
v -18.182871 -10.622766 4.260091
v -31.464106 -18.180439 1.865946
v -18.427601 -11.231155 1.865951
v -31.204569 -18.636932 0.760087
v -18.726542 -11.974335 0.760090
v -30.841763 -19.249962 -0.239428
v -19.132265 -12.982971 -0.239422
v -30.378347 -19.994759 -1.102226
v -19.632439 -14.226425 -1.102220
v -29.820225 -20.841530 -1.802093
v -20.211870 -15.666916 -1.802087
v -29.177694 -21.757080 -2.317762
v -20.852949 -17.260658 -2.317759
v -28.466043 -22.706757 -2.633568
v -21.536203 -18.959240 -2.633565
v -27.705599 -23.656517 -2.739914
v -22.240866 -20.711056 -2.739913
v -22.248983 -20.695675 -2.939155
v -27.717056 -23.642601 -2.939129
v 0.002367 21.204926 -2.960071
v 0.524821 36.351250 -2.962450
v 0.634633 36.347931 4.242688
v 0.105584 21.074852 4.242678
v 0.431797 36.353783 4.260119
v 0.323520 36.356461 3.044582
v -0.195439 21.211761 3.044573
v -0.093534 21.081749 4.260109
v 0.001938 36.362457 1.865978
v -0.498058 21.597878 1.865969
v -0.523162 36.365936 0.760117
v -0.992197 22.228355 0.760111
v -1.235456 36.358253 -0.239396
v -1.662842 23.084045 -0.239402
v -2.112182 36.329315 -1.102194
v -2.489617 24.138931 -1.102198
v -3.124573 36.269363 -1.802062
v -3.447395 25.360977 -1.802065
v -4.238730 36.170685 -2.317732
v -4.507082 26.713051 -2.317736
v -5.416992 36.029221 -2.633537
v -5.636474 28.154060 -2.633539
v -6.619735 35.845535 -2.739883
v -6.801258 29.640228 -2.739885
v -6.783876 29.639565 -2.939127
v -6.601952 35.848495 -2.939098
vt 0.916667 0.500000
vt 0.861111 0.500000
vt 0.861111 0.500000
vt 0.916667 0.500000
vt 0.861111 0.250000
vt 0.861111 0.250000
vt 0.916667 0.250000
vt 0.916667 0.250000
vt 0.250000 0.500000
vt 0.194444 0.500000
vt 0.194444 0.500000
vt 0.250000 0.500000
vt 0.194444 0.250000
vt 0.194444 0.250000
vt 0.250000 0.250000
vt 0.250000 0.250000
vt 0.583333 0.500000
vt 0.527778 0.500000
vt 0.527778 0.500000
vt 0.583333 0.500000
vt 0.527778 0.250000
vt 0.527778 0.250000
vt 0.583333 0.250000
vt 0.583333 0.250000
vt 0.750000 0.500000
vt 0.805556 0.500000
vt 0.805556 0.500000
vt 0.750000 0.500000
vt 0.861111 0.500000
vt 0.916667 0.500000
vt 0.972222 0.500000
vt 0.972222 0.500000
vt -0.027778 0.500000
vt 0.027778 0.500000
vt 0.027778 0.500000
vt -0.027778 0.500000
vt 0.083333 0.500000
vt 0.083333 0.500000
vt 0.138889 0.500000
vt 0.138889 0.500000
vt 0.194444 0.500000
vt 0.250000 0.500000
vt 0.305556 0.500000
vt 0.305556 0.500000
vt 0.361111 0.500000
vt 0.361111 0.500000
vt 0.416667 0.500000
vt 0.416667 0.500000
vt 0.472222 0.500000
vt 0.472222 0.500000
vt 0.527778 0.500000
vt 0.583333 0.500000
vt 0.638889 0.500000
vt 0.638889 0.500000
vt 0.694444 0.500000
vt 0.694444 0.500000
vt 0.805556 0.250000
vt 0.750000 0.250000
vt 0.750000 0.250000
vt 0.805556 0.250000
vt 0.861111 0.250000
vt 0.916667 0.250000
vt 0.972222 0.250000
vt 0.972222 0.250000
vt 0.027778 0.250000
vt -0.027778 0.250000
vt -0.027778 0.250000
vt 0.027778 0.250000
vt 0.083333 0.250000
vt 0.083333 0.250000
vt 0.138889 0.250000
vt 0.138889 0.250000
vt 0.194444 0.250000
vt 0.250000 0.250000
vt 0.305556 0.250000
vt 0.305556 0.250000
vt 0.361111 0.250000
vt 0.361111 0.250000
vt 0.416667 0.250000
vt 0.416667 0.250000
vt 0.472222 0.250000
vt 0.472222 0.250000
vt 0.527778 0.250000
vt 0.583333 0.250000
vt 0.638889 0.250000
vt 0.638889 0.250000
vt 0.694444 0.250000
vt 0.694444 0.250000
vt 0.777778 0.000000
vt 0.777778 1.000000
vt 0.750000 1.000000
vt 0.750000 0.000000
vt 0.750000 1.000000
vt 0.777778 1.000000
vt 0.777778 0.000000
vt 0.750000 0.000000
vt 0.805556 1.000000
vt 0.805556 0.000000
vt 0.833333 1.000000
vt 0.833333 0.000000
vt 0.861111 1.000000
vt 0.861111 0.000000
vt 0.888889 1.000000
vt 0.888889 0.000000
vt 0.916667 1.000000
vt 0.916667 0.000000
vt 0.944444 1.000000
vt 0.944444 0.000000
vt 0.972222 1.000000
vt 0.972222 0.000000
vt 1.000000 1.000000
vt 1.000000 0.000000
vt 1.000000 0.000000
vt 1.000000 1.000000
vt 0.777778 0.000000
vt 0.777778 1.000000
vt 0.750000 1.000000
vt 0.750000 0.000000
vt 0.750000 1.000000
vt 0.777778 1.000000
vt 0.777778 0.000000
vt 0.750000 0.000000
vt 0.805556 1.000000
vt 0.805556 0.000000
vt 0.833333 1.000000
vt 0.833333 0.000000
vt 0.861111 1.000000
vt 0.861111 0.000000
vt 0.888889 1.000000
vt 0.888889 0.000000
vt 0.916667 1.000000
vt 0.916667 0.000000
vt 0.944444 1.000000
vt 0.944444 0.000000
vt 0.972222 1.000000
vt 0.972222 0.000000
vt 1.000000 1.000000
vt 1.000000 0.000000
vt 1.000000 0.000000
vt 1.000000 1.000000
vt 0.777778 0.000000
vt 0.777778 1.000000
vt 0.750000 1.000000
vt 0.750000 0.000000
vt 0.750000 1.000000
vt 0.777778 1.000000
vt 0.777778 0.000000
vt 0.750000 0.000000
vt 0.805556 1.000000
vt 0.805556 0.000000
vt 0.833333 1.000000
vt 0.833333 0.000000
vt 0.861111 1.000000
vt 0.861111 0.000000
vt 0.888889 1.000000
vt 0.888889 0.000000
vt 0.916667 1.000000
vt 0.916667 0.000000
vt 0.944444 1.000000
vt 0.944444 0.000000
vt 0.972222 1.000000
vt 0.972222 0.000000
vt 1.000000 1.000000
vt 1.000000 0.000000
vt 1.000000 0.000000
vt 1.000000 1.000000
vn 0.0000 -0.0000 1.0000
vn -0.4740 0.8805 0.0000
vn 0.0000 0.0000 -1.0000
vn 0.4740 -0.8805 -0.0000
vn -0.5255 -0.8508 -0.0000
vn 0.5255 0.8508 0.0000
vn 0.9996 -0.0297 -0.0000
vn -0.9996 0.0297 -0.0000
vn -0.9996 0.0280 -0.0000
vn -0.9297 0.3682 0.0000
vn -0.9893 -0.1460 -0.0000
vn -0.8797 -0.4755 -0.0000
vn -0.5241 -0.8517 0.0000
vn -0.6640 -0.7477 0.0000
vn -0.2012 -0.9796 0.0000
vn 0.1460 -0.9893 0.0000
vn 0.4755 -0.8797 -0.0000
vn 0.6211 -0.7838 -0.0000
vn 0.8517 -0.5241 0.0000
vn 0.9996 -0.0280 0.0000
vn 0.9796 -0.2012 -0.0000
vn 0.9489 0.3156 0.0000
vn 0.7837 0.6211 0.0000
vn 0.5241 0.8517 0.0000
vn 0.3682 0.9297 0.0000
vn 0.0280 0.9996 0.0000
vn -0.4755 0.8797 0.0000
vn -0.3156 0.9489 0.0000
vn -0.7477 0.6640 0.0000
vn -0.4805 -0.7694 -0.4209
vn -0.3838 -0.6145 -0.6892
vn -0.5296 -0.8481 -0.0151
vn 0.5274 0.8451 0.0879
vn 0.5211 0.8353 0.1750
vn 0.5222 0.8370 0.1633
vn 0.4967 0.7968 0.3441
vn 0.5006 0.8030 0.3232
vn 0.4570 0.7343 0.5020
vn 0.4649 0.7467 0.4758
vn 0.4038 0.6502 0.6436
vn 0.4157 0.6689 0.6162
vn 0.3391 0.5473 0.7652
vn 0.3544 0.5718 0.7399
vn 0.2649 0.4288 0.8637
vn 0.2829 0.4576 0.8429
vn 0.1833 0.2975 0.9370
vn 0.2030 0.3293 0.9221
vn 0.0963 0.1565 0.9830
vn 0.1167 0.1896 0.9749
vn 0.0462 0.0750 0.9961
vn 0.8644 -0.5028 -0.0053
vn 0.8739 -0.4829 -0.0547
vn 0.8778 -0.4725 -0.0794
vn -0.0457 -0.0733 0.9963
vn -0.2091 0.9771 -0.0402
vn -0.1790 0.9822 -0.0563
vn -0.1559 0.9854 -0.0684
vn 0.1958 0.9771 -0.0832
vn 0.1890 0.9785 -0.0830
vn 0.5231 0.8477 -0.0877
vn 0.0016 0.0028 -1.0000
vn -0.2297 0.9728 -0.0291
vn 0.8838 -0.4486 -0.1327
vn -0.4261 0.8008 -0.4209
vn -0.3403 0.6396 -0.6892
vn -0.4697 0.8827 -0.0151
vn 0.4682 -0.8793 0.0879
vn 0.4629 -0.8690 0.1750
vn 0.4638 -0.8708 0.1633
vn 0.4417 -0.8285 0.3441
vn 0.4451 -0.8351 0.3232
vn 0.4074 -0.7629 0.5020
vn 0.4142 -0.7759 0.4758
vn 0.3611 -0.6748 0.6436
vn 0.3715 -0.6945 0.6162
vn 0.3044 -0.5673 0.7652
vn 0.3179 -0.5928 0.7399
vn 0.2389 -0.4438 0.8637
vn 0.2549 -0.4738 0.8429
vn 0.1660 -0.3075 0.9370
vn 0.1837 -0.3405 0.9221
vn 0.0874 -0.1617 0.9830
vn 0.1058 -0.1958 0.9749
vn 0.0419 -0.0776 0.9961
vn -0.8676 -0.4972 -0.0053
vn -0.8552 -0.5154 -0.0547
vn -0.8481 -0.5239 -0.0794
vn -0.0406 0.0762 0.9963
vn 0.9507 -0.3074 -0.0402
vn 0.9401 -0.3361 -0.0563
vn 0.9313 -0.3577 -0.0685
vn 0.7483 -0.6582 -0.0832
vn 0.7529 -0.6529 -0.0830
vn 0.4726 -0.8769 -0.0877
vn 0.0016 -0.0028 -1.0000
vn 0.9574 -0.2874 -0.0291
vn -0.8304 -0.5411 -0.1328
vn 0.9297 -0.3682 -0.0000
vn 0.2012 0.9796 0.0000
vn -0.1460 0.9893 0.0000
vn -0.9489 -0.3156 0.0000
vn -0.7837 -0.6211 0.0000
vn 0.4756 -0.8797 -0.0000
vn 0.7477 -0.6640 -0.0000
vn 0.9066 -0.0314 -0.4209
vn 0.7241 -0.0251 -0.6892
vn 0.9993 -0.0345 -0.0151
vn -0.9955 0.0342 0.0879
vn -0.9840 0.0337 0.1750
vn -0.9860 0.0337 0.1633
vn -0.9384 0.0317 0.3441
vn -0.9458 0.0320 0.3232
vn -0.8644 0.0286 0.5020
vn -0.8791 0.0293 0.4758
vn -0.7650 0.0246 0.6436
vn -0.7872 0.0255 0.6162
vn -0.6435 0.0200 0.7652
vn -0.6724 0.0211 0.7399
vn -0.5037 0.0150 0.8637
vn -0.5378 0.0162 0.8429
vn -0.3493 0.0100 0.9370
vn -0.3867 0.0112 0.9221
vn -0.1837 0.0052 0.9830
vn -0.2225 0.0063 0.9749
vn -0.0881 0.0025 0.9961
vn 0.0032 1.0000 -0.0053
vn -0.0187 0.9983 -0.0547
vn -0.0297 0.9964 -0.0794
vn 0.0863 -0.0030 0.9963
vn -0.7416 -0.6696 -0.0402
vn -0.7612 -0.6461 -0.0563
vn -0.7754 -0.6277 -0.0685
vn -0.9441 -0.3189 -0.0832
vn -0.9419 -0.3256 -0.0830
vn -0.9957 0.0292 -0.0877
vn -0.0032 -0.0000 -1.0000
vn -0.7276 -0.6854 -0.0291
vn -0.0534 0.9897 -0.1327
usemtl glass1
s off
f 1/1/1 2/2/1 3/3/1 4/4/1
f 2/2/2 5/5/2 6/6/2 3/3/2
f 5/5/3 7/7/3 8/8/3 6/6/3
f 7/7/4 1/1/4 4/4/4 8/8/4
f 9/9/1 10/10/1 11/11/1 12/12/1
f 10/10/5 13/13/5 14/14/5 11/11/5
f 13/13/3 15/15/3 16/16/3 14/14/3
f 15/15/6 9/9/6 12/12/6 16/16/6
f 17/17/1 18/18/1 19/19/1 20/20/1
f 18/18/7 21/21/7 22/22/7 19/19/7
f 21/21/3 23/23/3 24/24/3 22/22/3
f 23/23/8 17/17/8 20/20/8 24/24/8
f 25/25/1 26/26/1 27/27/1 28/28/1
f 26/26/1 2/2/1 29/29/1 27/27/1
f 2/2/1 1/1/1 30/30/1 29/29/1
f 1/1/1 31/31/1 32/32/1 30/30/1
f 31/33/1 33/34/1 34/35/1 32/36/1
f 33/34/1 35/37/1 36/38/1 34/35/1
f 35/37/1 37/39/1 38/40/1 36/38/1
f 37/39/1 10/10/1 39/41/1 38/40/1
f 10/10/1 9/9/1 40/42/1 39/41/1
f 9/9/1 41/43/1 42/44/1 40/42/1
f 41/43/1 43/45/1 44/46/1 42/44/1
f 43/45/1 45/47/1 46/48/1 44/46/1
f 45/47/1 47/49/1 48/50/1 46/48/1
f 47/49/1 18/18/1 49/51/1 48/50/1
f 18/18/1 17/17/1 50/52/1 49/51/1
f 17/17/1 51/53/1 52/54/1 50/52/1
f 51/53/1 53/55/1 54/56/1 52/54/1
f 53/55/1 25/25/1 28/28/1 54/56/1
f 55/57/3 56/58/3 57/59/3 58/60/3
f 5/5/3 55/57/3 58/60/3 59/61/3
f 7/7/3 5/5/3 59/61/3 60/62/3
f 61/63/3 7/7/3 60/62/3 62/64/3
f 63/65/3 61/66/3 62/67/3 64/68/3
f 65/69/3 63/65/3 64/68/3 66/70/3
f 67/71/3 65/69/3 66/70/3 68/72/3
f 13/13/3 67/71/3 68/72/3 69/73/3
f 15/15/3 13/13/3 69/73/3 70/74/3
f 71/75/3 15/15/3 70/74/3 72/76/3
f 73/77/3 71/75/3 72/76/3 74/78/3
f 75/79/3 73/77/3 74/78/3 76/80/3
f 77/81/3 75/79/3 76/80/3 78/82/3
f 21/21/3 77/81/3 78/82/3 79/83/3
f 23/23/3 21/21/3 79/83/3 80/84/3
f 81/85/3 23/23/3 80/84/3 82/86/3
f 83/87/3 81/85/3 82/86/3 84/88/3
f 56/58/3 83/87/3 84/88/3 57/59/3
s 1
f 55/57/9 26/26/9 25/25/10 56/58/10
f 5/5/11 2/2/11 26/26/9 55/57/9
f 8/8/12 4/4/12 3/3/12 6/6/12
f 61/63/13 31/31/13 1/1/14 7/7/14
f 63/65/15 33/34/15 31/33/13 61/66/13
f 65/69/16 35/37/16 33/34/15 63/65/15
f 67/71/17 37/39/17 35/37/16 65/69/16
f 13/13/18 10/10/18 37/39/17 67/71/17
f 16/16/19 12/12/19 11/11/19 14/14/19
f 71/75/20 41/43/20 9/9/21 15/15/21
f 73/77/22 43/45/22 41/43/20 71/75/20
f 75/79/23 45/47/23 43/45/22 73/77/22
f 77/81/24 47/49/24 45/47/23 75/79/23
f 21/21/25 18/18/25 47/49/24 77/81/24
f 24/24/26 20/20/26 19/19/26 22/22/26
f 81/85/27 51/53/27 17/17/28 23/23/28
f 83/87/29 53/55/29 51/53/27 81/85/27
f 56/58/10 25/25/10 53/55/29 83/87/29
f 85/89/30 86/90/31 87/91/32 88/92/32
f 89/93/33 90/94/34 91/95/35 92/96/33
f 90/94/34 93/97/36 94/98/37 91/95/35
f 93/97/36 95/99/38 96/100/39 94/98/37
f 95/99/38 97/101/40 98/102/41 96/100/39
f 97/101/40 99/103/42 100/104/43 98/102/41
f 99/103/42 101/105/44 102/106/45 100/104/43
f 101/105/44 103/107/46 104/108/47 102/106/45
f 103/107/46 105/109/48 106/110/49 104/108/47
f 105/109/48 107/111/50 108/112/50 106/110/49
f 87/91/51 86/90/52 99/103/53 97/101/51 95/99/51 93/97/51 90/94/51 89/93/51
f 88/92/54 87/91/54 89/93/54 92/96/54
f 85/89/55 100/104/56 102/106/57 104/108/57 106/110/57 108/112/58 109/113/59
f 110/114/60 109/113/59 108/112/58 107/111/60
f 85/89/30 109/113/61 110/114/61 86/90/31
f 85/89/55 88/92/62 92/96/62 91/95/62 94/98/62 96/100/62 98/102/62 100/104/56
f 86/90/52 110/114/63 107/111/63 105/109/63 103/107/63 101/105/63 99/103/53
f 111/115/64 112/116/65 113/117/66 114/118/66
f 115/119/67 116/120/68 117/121/69 118/122/67
f 116/120/68 119/123/70 120/124/71 117/121/69
f 119/123/70 121/125/72 122/126/73 120/124/71
f 121/125/72 123/127/74 124/128/75 122/126/73
f 123/127/74 125/129/76 126/130/77 124/128/75
f 125/129/76 127/131/78 128/132/79 126/130/77
f 127/131/78 129/133/80 130/134/81 128/132/79
f 129/133/80 131/135/82 132/136/83 130/134/81
f 131/135/82 133/137/84 134/138/84 132/136/83
f 113/117/85 112/116/86 125/129/87 123/127/85 121/125/85 119/123/85 116/120/85 115/119/85
f 114/118/88 113/117/88 115/119/88 118/122/88
f 111/115/89 126/130/90 128/132/91 130/134/91 132/136/91 134/138/92 135/139/93
f 136/140/94 135/139/93 134/138/92 133/137/94
f 111/115/64 135/139/95 136/140/95 112/116/65
f 111/115/89 114/118/96 118/122/96 117/121/96 120/124/96 122/126/96 124/128/96 126/130/90
f 112/116/86 136/140/97 133/137/97 131/135/97 129/133/97 127/131/97 125/129/87
f 28/28/98 27/27/20 58/60/20 57/59/98
f 27/27/20 29/29/22 59/61/22 58/60/20
f 29/29/22 30/30/23 60/62/23 59/61/22
f 30/30/23 32/32/24 62/64/24 60/62/23
f 32/36/24 34/35/99 64/68/99 62/67/24
f 34/35/99 36/38/100 66/70/100 64/68/99
f 36/38/100 38/40/27 68/72/27 66/70/100
f 38/40/27 39/41/29 69/73/29 68/72/27
f 39/41/29 40/42/10 70/74/10 69/73/29
f 40/42/10 42/44/9 72/76/9 70/74/10
f 42/44/9 44/46/101 74/78/101 72/76/9
f 44/46/101 46/48/102 76/80/102 74/78/101
f 46/48/102 48/50/13 78/82/13 76/80/102
f 48/50/13 49/51/15 79/83/15 78/82/13
f 49/51/15 50/52/16 80/84/16 79/83/15
f 50/52/16 52/54/103 82/86/103 80/84/16
f 52/54/103 54/56/104 84/88/104 82/86/103
f 54/56/104 28/28/98 57/59/98 84/88/104
f 137/141/105 138/142/106 139/143/107 140/144/107
f 141/145/108 142/146/109 143/147/110 144/148/108
f 142/146/109 145/149/111 146/150/112 143/147/110
f 145/149/111 147/151/113 148/152/114 146/150/112
f 147/151/113 149/153/115 150/154/116 148/152/114
f 149/153/115 151/155/117 152/156/118 150/154/116
f 151/155/117 153/157/119 154/158/120 152/156/118
f 153/157/119 155/159/121 156/160/122 154/158/120
f 155/159/121 157/161/123 158/162/124 156/160/122
f 157/161/123 159/163/125 160/164/125 158/162/124
f 139/143/126 138/142/127 151/155/128 149/153/126 147/151/126 145/149/126 142/146/126 141/145/126
f 140/144/129 139/143/129 141/145/129 144/148/129
f 137/141/130 152/156/131 154/158/132 156/160/132 158/162/132 160/164/133 161/165/134
f 162/166/135 161/165/134 160/164/133 159/163/135
f 137/141/105 161/165/136 162/166/136 138/142/106
f 137/141/130 140/144/137 144/148/137 143/147/137 146/150/137 148/152/137 150/154/137 152/156/131
f 138/142/127 162/166/138 159/163/138 157/161/138 155/159/138 153/157/138 151/155/128
